<?xml version="1.0" encoding="UTF-8"?>
<svg width="15px" height="15px" viewBox="0 0 15 15" version="1.1" xmlns="http://www.w3.org/2000/svg" xmlns:xlink="http://www.w3.org/1999/xlink">
    <!-- Generator: Sketch 60.1 (88133) - https://sketch.com -->
    <title>close</title>
    <desc>Created with Sketch.</desc>
    <g id="Page-1" stroke="none" stroke-width="1" fill="none" fill-rule="evenodd">
        <path d="M9.8709264,5.12904997 C9.69882827,4.95698334 9.41871109,4.95698334 9.24661296,5.12904997 L7.5,6.87534322 L5.75338704,5.12904997 C5.58128891,4.95698334 5.30117173,4.95698334 5.1290736,5.12904997 C4.95697547,5.3011166 4.95697547,5.5811825 5.1290736,5.75324913 L6.87568656,7.49954238 L5.1290736,9.24583562 C4.95697547,9.41790225 4.95697547,9.69796815 5.1290736,9.87003478 C5.21512267,9.95606809 5.3286342,10 5.4403149,10 C5.55382644,10 5.66550714,9.95606809 5.75155621,9.87003478 L7.49816917,8.12374153 L9.24478213,9.87003478 C9.3308312,9.95606809 9.44434273,10 9.55602343,10 C9.66953497,10 9.78121567,9.95606809 9.86726474,9.87003478 C10.0393629,9.69796815 10.0393629,9.41790225 9.86726474,9.24583562 L8.12431344,7.49954238 L9.8709264,5.75324913 C10.0430245,5.5811825 10.0430245,5.3011166 9.8709264,5.12904997 Z" id="Path" fill="#969696" fill-rule="nonzero"></path>
        <path d="M7.5,0 C3.36428571,0 0,3.36428571 0,7.5 C0,11.6357143 3.36428571,15 7.5,15 C11.6357143,15 15,11.6357143 15,7.5 C15,3.36428571 11.6357143,0 7.5,0 Z M7.5,14.2622449 C3.77142857,14.2622449 0.737755102,11.2285714 0.737755102,7.5 C0.737755102,3.77142857 3.77142857,0.737755102 7.5,0.737755102 C11.2285714,0.737755102 14.2622449,3.77142857 14.2622449,7.5 C14.2622449,11.2285714 11.2285714,14.2622449 7.5,14.2622449 Z" id="Shape" fill="#969696" fill-rule="nonzero"></path>
    </g>
</svg>