<?xml version="1.0" encoding="utf-8"?>
<!-- Generator: Adobe Illustrator 24.0.0, SVG Export Plug-In . SVG Version: 6.00 Build 0)  -->
<svg version="1.1" id="Livello_1" xmlns="http://www.w3.org/2000/svg" xmlns:xlink="http://www.w3.org/1999/xlink" x="0px" y="0px"
	 viewBox="0 0 135 40" style="enable-background:new 0 0 135 40;" xml:space="preserve">
<style type="text/css">
	.st0{fill-rule:evenodd;clip-rule:evenodd;}
	.st1{fill-rule:evenodd;clip-rule:evenodd;fill:#A6A6A6;}
	.st2{fill:#FFFFFF;}
	.st3{fill-rule:evenodd;clip-rule:evenodd;fill:#FFFFFF;}
	.st4{fill-rule:evenodd;clip-rule:evenodd;fill:url(#SVGID_1_);}
	.st5{fill-rule:evenodd;clip-rule:evenodd;fill:url(#SVGID_2_);}
	.st6{fill-rule:evenodd;clip-rule:evenodd;fill:url(#SVGID_3_);}
	.st7{fill-rule:evenodd;clip-rule:evenodd;fill:url(#SVGID_4_);}
	.st8{opacity:0.2;fill-rule:evenodd;clip-rule:evenodd;enable-background:new    ;}
	.st9{opacity:0.12;fill-rule:evenodd;clip-rule:evenodd;enable-background:new    ;}
	.st10{opacity:0.25;fill-rule:evenodd;clip-rule:evenodd;fill:#FFFFFF;enable-background:new    ;}
</style>
<title>googleplay</title>
<path class="st0" d="M129.9,39.9H5.1c-2.8,0-5-2.2-5-5V5.1c0-2.7,2.2-5,5-5h124.8c2.7,0,5,2.2,5,5v29.8
	C134.9,37.6,132.6,39.9,129.9,39.9z"/>
<path class="st1" d="M129.9,0.9c2.3,0,4.2,1.9,4.2,4.2v29.8c0,2.3-1.9,4.2-4.2,4.2H5.1c-2.3,0-4.2-1.9-4.2-4.2V5.1
	c0-2.3,1.9-4.2,4.2-4.2L129.9,0.9z M129.9,0.1H5.1c-2.8,0-5,2.2-5,5v29.8c0,2.7,2.2,5,5,5h124.8c2.7,0,5-2.2,5-5V5.1
	C134.9,2.4,132.6,0.1,129.9,0.1z"/>
<path class="st2" d="M71.1,13.3c-0.9,0-1.7-0.3-2.3-0.9c-0.6-0.6-0.9-1.4-0.9-2.3c0-0.9,0.3-1.7,0.9-2.3c0.6-0.6,1.4-0.9,2.3-0.9
	c0.9,0,1.6,0.3,2.3,0.9c0.6,0.6,0.9,1.4,0.9,2.3c0,0.9-0.3,1.7-0.9,2.3C72.8,13,72,13.3,71.1,13.3z M44.3,13.3
	c-0.9,0-1.6-0.3-2.3-0.9c-0.6-0.6-0.9-1.4-0.9-2.3c0-0.9,0.3-1.7,0.9-2.3c0.6-0.6,1.4-0.9,2.3-0.9c0.4,0,0.9,0.1,1.3,0.3
	c0.4,0.2,0.7,0.4,1,0.7l0.1,0.1L46,8.5l-0.1-0.1C45.5,8,45,7.8,44.3,7.8c-0.6,0-1.1,0.2-1.6,0.6s-0.7,1-0.7,1.7
	c0,0.7,0.2,1.2,0.7,1.7c0.4,0.4,1,0.6,1.6,0.6c0.6,0,1.2-0.2,1.6-0.6c0.2-0.2,0.4-0.6,0.5-1h-2.2V9.8h3.1l0,0.1c0,0.2,0,0.3,0,0.5
	c0,0.9-0.3,1.5-0.8,2.1C46,13,45.2,13.3,44.3,13.3L44.3,13.3z M79.9,13.1H79l-2.9-4.7l0,0.8v3.8h-0.9V7h1.1l0,0l2.7,4.4l0-0.8V7h1
	L79.9,13.1L79.9,13.1z M64,13.1h-1V7.9h-1.7V7h4.3v0.9H64L64,13.1L64,13.1z M60.6,13.1h-1V7h1V13.1z M55.2,13.1h-1V7.9h-1.7V7h4.3
	v0.9h-1.7V13.1z M51.9,13.1h-3.7V7h3.7v0.9h-2.7v1.7h2.5v0.9h-2.5v1.7h2.7L51.9,13.1z M69.6,11.7c0.4,0.4,0.9,0.6,1.6,0.6
	c0.6,0,1.1-0.2,1.6-0.6c0.4-0.4,0.6-1,0.6-1.6s-0.2-1.2-0.6-1.6c-0.4-0.4-1-0.6-1.6-0.6c-0.6,0-1.1,0.2-1.6,0.6
	c-0.4,0.4-0.6,1-0.6,1.6S69.1,11.3,69.6,11.7L69.6,11.7z"/>
<path class="st3" d="M67.9,21.8c-2.3,0-4.2,1.8-4.2,4.2c0,2.4,1.9,4.2,4.2,4.2c2.3,0,4.2-1.8,4.2-4.2C72.1,23.5,70.2,21.8,67.9,21.8
	z M67.9,28.5c-1.3,0-2.4-1.1-2.4-2.6c0-1.5,1.1-2.6,2.4-2.6s2.4,1,2.4,2.6C70.2,27.5,69.1,28.5,67.9,28.5z M58.6,21.8
	c-2.3,0-4.2,1.8-4.2,4.2c0,2.4,1.9,4.2,4.2,4.2c2.3,0,4.2-1.8,4.2-4.2C62.8,23.5,60.9,21.8,58.6,21.8z M58.6,28.5
	c-1.3,0-2.4-1.1-2.4-2.6c0-1.5,1.1-2.6,2.4-2.6s2.4,1,2.4,2.6C61,27.5,59.9,28.5,58.6,28.5z M47.6,23v1.8h4.3c-0.1,1-0.5,1.7-1,2.3
	c-0.6,0.6-1.6,1.3-3.3,1.3c-2.6,0-4.7-2.1-4.7-4.8s2.1-4.8,4.7-4.8c1.4,0,2.5,0.6,3.2,1.3l1.3-1.3c-1.1-1-2.5-1.8-4.5-1.8
	c-3.6,0-6.7,3-6.7,6.6c0,3.6,3,6.6,6.7,6.6c2,0,3.4-0.6,4.6-1.8c1.2-1.2,1.6-2.9,1.6-4.2c0-0.4,0-0.8-0.1-1.1L47.6,23
	C47.6,23,47.6,23,47.6,23z M92.6,24.4c-0.4-0.9-1.4-2.7-3.6-2.7c-2.2,0-4,1.7-4,4.2c0,2.4,1.8,4.2,4.2,4.2c1.9,0,3.1-1.2,3.5-1.9
	l-1.4-1c-0.5,0.7-1.1,1.2-2.1,1.2c-0.9,0-1.6-0.4-2.1-1.3l5.7-2.3C92.8,24.9,92.6,24.4,92.6,24.4z M86.9,25.9c0-1.6,1.3-2.5,2.2-2.5
	c0.7,0,1.4,0.4,1.6,0.9L86.9,25.9z M82.3,29.9h1.9V17.5h-1.9V29.9z M79.2,22.7L79.2,22.7c-0.5-0.5-1.3-0.9-2.3-0.9
	c-2.1,0-4.1,1.9-4.1,4.2c0,2.4,1.9,4.2,4.1,4.2c1,0,1.8-0.5,2.2-1h0.1v0.6c0,1.6-0.9,2.5-2.3,2.5c-1.1,0-1.8-0.8-2.1-1.5l-1.6,0.7
	c0.5,1.1,1.7,2.5,3.7,2.5c2.2,0,4-1.3,4-4.4V22h-1.8L79.2,22.7L79.2,22.7z M77.1,28.5c-1.3,0-2.4-1.1-2.4-2.6c0-1.5,1.1-2.6,2.4-2.6
	c1.3,0,2.3,1.1,2.3,2.6C79.4,27.5,78.4,28.5,77.1,28.5z M101.3,17.5h-4.4v12.4h1.9v-4.7h2.6c2.1,0,4.1-1.5,4.1-3.9
	S103.4,17.5,101.3,17.5L101.3,17.5z M101.4,23.5h-2.6v-4.3h2.6c1.4,0,2.2,1.1,2.2,2.1C103.6,22.3,102.8,23.5,101.4,23.5L101.4,23.5z
	 M112.8,21.7c-1.3,0-2.7,0.6-3.3,1.9l1.6,0.7c0.4-0.7,1-0.9,1.7-0.9c1,0,1.9,0.6,2,1.6v0.1c-0.3-0.2-1.1-0.5-1.9-0.5
	c-1.8,0-3.6,1-3.6,2.8c0,1.7,1.5,2.7,3.1,2.7c1.2,0,1.9-0.6,2.4-1.2h0.1v1h1.8v-4.8C116.6,23,115,21.7,112.8,21.7L112.8,21.7z
	 M112.6,28.5c-0.6,0-1.5-0.3-1.5-1.1c0-1,1.1-1.3,2-1.3c0.8,0,1.2,0.2,1.7,0.4C114.7,27.7,113.7,28.5,112.6,28.5L112.6,28.5z
	 M123.1,22l-2.1,5.4h-0.1l-2.2-5.4h-2l3.3,7.5l-1.9,4.2h1.9l5.1-11.7H123.1z M106.4,29.9h1.9V17.5h-1.9V29.9z"/>
<linearGradient id="SVGID_1_" gradientUnits="userSpaceOnUse" x1="6468.1807" y1="607.2502" x2="6466.7476" y2="606.5101" gradientTransform="matrix(11.64 0 0 -22.55 -75267.8359 13702.2695)">
	<stop  offset="0" style="stop-color:#00A0FF"/>
	<stop  offset="1.000000e-02" style="stop-color:#00A1FF"/>
	<stop  offset="0.26" style="stop-color:#00BEFF"/>
	<stop  offset="0.51" style="stop-color:#00D2FF"/>
	<stop  offset="0.76" style="stop-color:#00DFFF"/>
	<stop  offset="1" style="stop-color:#00E3FF"/>
</linearGradient>
<path class="st4" d="M10.5,7.6C10.2,7.9,10,8.4,10,9v22c0,0.6,0.2,1.1,0.5,1.4l0.1,0.1l12.3-12.3v-0.3L10.5,7.6L10.5,7.6z"/>
<linearGradient id="SVGID_2_" gradientUnits="userSpaceOnUse" x1="6300.7549" y1="695.9537" x2="6298.1245" y2="695.9537" gradientTransform="matrix(9.15 0 0 -7.7 -57617.6484 5378.8501)">
	<stop  offset="0" style="stop-color:#FFE000"/>
	<stop  offset="0.41" style="stop-color:#FFBD00"/>
	<stop  offset="0.78" style="stop-color:#FFA500"/>
	<stop  offset="1" style="stop-color:#FF9C00"/>
</linearGradient>
<path class="st5" d="M27,24.3l-4.1-4.1v-0.3l4.1-4.1l0.1,0.1l4.9,2.8c1.4,0.8,1.4,2.1,0,2.9L27,24.3L27,24.3z"/>
<linearGradient id="SVGID_3_" gradientUnits="userSpaceOnUse" x1="6604.8843" y1="650.7659" x2="6603.3784" y2="648.8118" gradientTransform="matrix(15.02 0 0 -11.58 -99180.5547 7558.1401)">
	<stop  offset="0" style="stop-color:#FF3A44"/>
	<stop  offset="1" style="stop-color:#C31162"/>
</linearGradient>
<path class="st6" d="M27.1,24.2L22.9,20L10.5,32.4c0.5,0.5,1.2,0.5,2.1,0.1L27.1,24.2"/>
<linearGradient id="SVGID_4_" gradientUnits="userSpaceOnUse" x1="6603.7236" y1="651.9193" x2="6604.3965" y2="651.046" gradientTransform="matrix(15.02 0 0 -11.57 -99180.5547 7543.02)">
	<stop  offset="0" style="stop-color:#32A071"/>
	<stop  offset="7.000000e-02" style="stop-color:#2DA771"/>
	<stop  offset="0.48" style="stop-color:#15CF74"/>
	<stop  offset="0.8" style="stop-color:#06E775"/>
	<stop  offset="1" style="stop-color:#00F076"/>
</linearGradient>
<path class="st7" d="M27.1,15.8L12.6,7.6c-0.9-0.5-1.6-0.4-2.1,0.1L22.9,20L27.1,15.8z"/>
<path class="st8" d="M27,24.1l-14.4,8.2c-0.8,0.5-1.5,0.4-2,0l-0.1,0.1l0.1,0.1c0.5,0.4,1.2,0.5,2,0L27,24.1L27,24.1z"/>
<path class="st9" d="M31.9,21.3l-5,2.8l0.1,0.1l4.9-2.8c0.7-0.4,1-0.9,1-1.4C32.9,20.5,32.6,20.9,31.9,21.3z"/>
<path class="st10" d="M12.6,7.7l19.4,11c0.6,0.4,1,0.8,1,1.3c0-0.5-0.3-1-1-1.4l-19.4-11C11.2,6.8,10,7.4,10,9v0.1
	C10,7.6,11.2,6.9,12.6,7.7z"/>
</svg>
