<?xml version="1.0" encoding="UTF-8"?>
<svg width="16px" height="16px" viewBox="0 0 16 16" version="1.1" xmlns="http://www.w3.org/2000/svg" xmlns:xlink="http://www.w3.org/1999/xlink">
    <!-- Generator: Sketch 60.1 (88133) - https://sketch.com -->
    <title>i-icon</title>
    <desc>Created with Sketch.</desc>
    <g id="Page-1" stroke="none" stroke-width="1" fill="none" fill-rule="evenodd">
        <path d="M8,15 C4.14033499,15 1,11.859665 1,8 C1,4.14033499 4.14033499,1 8,1 C11.859665,1 15,4.14033499 15,8 C15,11.859665 11.859665,15 8,15 Z" id="Path" stroke="#2864FF" fill-rule="nonzero"></path>
        <g id="information-button" transform="translate(6.000000, 4.000000)" fill="#2864FF" fill-rule="nonzero">
            <path d="M1.00002052,0.199976858 C1.00002052,0.141614701 1.02341682,0.093738468 1.07034622,0.0562605938 C1.11719354,0.0188046109 1.17714825,-7.10542736e-15 1.25004618,-7.10542736e-15 L2.75014537,-7.10542736e-15 C2.82298857,-7.10542736e-15 2.88294328,0.0188046109 2.92968114,0.0562605938 C2.97650109,0.093738468 3.00008893,0.141614701 3.00008893,0.199976858 L3.00008893,1.20001439 C3.00008893,1.25833276 2.97650109,1.30627467 2.92968114,1.34370876 C2.88294328,1.38118663 2.82301593,1.39992557 2.75014537,1.39992557 L1.25004618,1.39992557 C1.17714825,1.39992557 1.1172209,1.38118663 1.07034622,1.34370876 C1.02341682,1.30629656 1.00002052,1.25833276 1.00002052,1.20001439 L1.00002052,0.199976858 Z M4,6.80011071 C4,6.8583853 3.97638479,6.9063491 3.9296743,6.94373941 C3.8830459,6.98126106 3.82309118,7 3.7500838,7 L0.249970926,7 C0.176990908,7 0.117145652,6.98126106 0.0702709729,6.94373941 C0.0234236576,6.9063491 5.68434189e-14,6.85840719 5.68434189e-14,6.80004503 L5.68434189e-14,5.80000751 C5.68434189e-14,5.74155778 0.0234236576,5.69376912 0.0702709729,5.65624746 C0.117145652,5.61885715 0.177073001,5.59998687 0.249970926,5.59998687 L1.00002052,5.59998687 L1.00002052,3.60004316 L0.249970926,3.60004316 C0.176990908,3.60004316 0.117173016,3.58132611 0.0702709729,3.54382635 C0.0234236576,3.50637036 5.68434189e-14,3.45842846 5.68434189e-14,3.4000663 L5.68434189e-14,2.40009445 C5.68434189e-14,2.34173229 0.0234236576,2.29385606 0.0702709729,2.2563344 C0.11720038,2.21883463 0.177127729,2.20011759 0.249970926,2.20011759 L2.75014537,2.20011759 C2.82298857,2.20011759 2.88294328,2.21883463 2.92968114,2.2563344 C2.97650109,2.29385606 3.00008893,2.34173229 3.00008893,2.40009445 L3.00008893,5.6001401 L3.74989225,5.6001401 C3.822927,5.6001401 3.88285435,5.61885715 3.9296743,5.65631313 C3.9763027,5.69379101 3.99989054,5.74171102 3.99989054,5.80007318 L3.99989054,6.8001326 L4,6.8001326 L4,6.80011071 Z" id="Shape"></path>
        </g>
    </g>
</svg>