<svg xmlns="http://www.w3.org/2000/svg" width="125" height="25" viewBox="0 0 125 25">
  <g fill="#FFAA08">
    <path d="M124.867647,0.910130719 L124.867647,9.24346405 C124.862246,12.8014089 122.493784,15.9226536 119.068627,16.8856209 L119.068627,18.3186275 L114.79085,18.3186275 L114.79085,16.8856209 C111.364782,15.9229713 108.995947,12.8005678 108.99183,9.24183007 L108.99183,0.908496732 L113.230392,0.908496732 L113.230392,9.24183007 C113.272616,11.2470152 114.91022,12.8504988 116.91585,12.8504988 C118.921479,12.8504988 120.559083,11.2470152 120.601307,9.24183007 L120.601307,0.908496732 L124.867647,0.910130719 Z"/>
    <rect width="4.276" height="4.276" x="114.763" y="19.737"/>
    <path d="M98.9035948,12.9166667 C96.5996732,12.9166667 94.6356209,10.998366 94.6356209,8.69117647 C94.6241467,7.55576076 95.0701214,6.46350543 95.8730226,5.66060429 C96.6759237,4.85770315 97.7681791,4.41172843 98.9035948,4.42320261 C101.197717,4.4301492 103.078915,6.24362105 103.169935,8.53594771 C103.169935,8.58660131 103.169935,8.6372549 103.169935,8.69934641 C103.169935,9.82770201 102.718761,10.9092123 101.91676,11.7029259 C101.11476,12.4966396 100.028621,12.9366176 98.9003268,12.9248366 M107.366013,8.54411765 C107.3057,4.72254072 104.696468,1.41354396 100.994339,0.463635747 C97.2922091,-0.486272464 93.4121311,1.15766941 91.5192914,4.47809799 C89.6264518,7.79852657 90.1886493,11.9748269 92.8921628,14.676512 C95.5956763,17.3781972 99.772356,17.9375692 103.091503,16.0424837 L103.091503,16.746732 L107.367647,16.746732 L107.367647,8.68627451 C107.367647,8.63562092 107.367647,8.58496732 107.367647,8.53594771"/>
    <rect width="4.276" height="4.276" x="18.263" y="19.739"/>
    <path d="M26.7287582,12.9035948 C25.0103379,12.8949778 23.466344,11.8519769 22.8168363,10.2610078 C22.1673286,8.67003884 22.5402382,6.84446866 23.7616541,5.63567353 C24.9830701,4.4268784 26.812415,4.07294997 28.3965522,4.73894694 C29.9806893,5.40494391 31.0075976,6.95968746 30.9984277,8.67810458 C30.9984277,10.9836601 29.0375817,12.9035948 26.7287582,12.9035948 M26.7287582,0.176470588 C22.0546402,0.193540627 18.2720295,3.98272222 18.2630719,8.65686275 L18.2630719,18.3169935 L22.5392157,18.3169935 L22.5392157,16.0212418 C25.6326456,17.7828259 29.4969766,17.4249299 32.2142655,15.1251847 C34.9315544,12.8254395 35.9233215,9.07343453 34.6973333,5.7313633 C33.4713452,2.38929206 30.2886007,0.168643368 26.7287582,0.171565741"/>
    <rect width="4.276" height="4.276" x="72.194" y="19.739"/>
    <path d="M80.6617647 12.9035948C78.9431918 12.895638 77.3986938 11.8530529 76.7486715 10.2621326 76.0986492 8.67121244 76.4711581 6.8453716 77.6924489 5.63623762 78.9137397 4.42710364 80.7432156 4.07287831 82.3275536 4.73878305 83.9118917 5.40468779 84.9389741 6.95953806 84.9298003 8.67810458 84.9298003 10.9836601 82.9689542 12.9035948 80.6617647 12.9035948M80.6617647.176470588C75.9876468.193540627 72.205036 3.98272222 72.1960784 8.65686275L72.1960784 18.3169935 76.4705882 18.3169935 76.4705882 16.0212418C79.5638447 17.7827283 83.4279387 17.4249802 86.1452237 15.1255383 88.8625086 12.8260965 89.8545734 9.07442841 88.6290829 5.73238664 87.4035923 2.39034487 84.2214087.169328524 80.6617647.171566935M12.9052288 8.67156863C12.9052288 11.0178764 11.0031705 12.9199346 8.65686275 12.9199346 6.31055498 12.9199346 4.40849673 11.0178764 4.40849673 8.67156863 4.40849673 6.32526087 6.31055498 4.42320261 8.65686275 4.42320261 11.0005624 4.42948723 12.8989441 6.32786898 12.9052288 8.67156863M17.1535948 8.67156863C17.1535948 3.97895311 13.3494783.174836601 8.65686275.174836601 3.96424722.174836601.160130719 3.97895311.160130719 8.67156863.160130719 13.3641841 3.96424722 17.1683007 8.65686275 17.1683007 13.3438908 17.1548385 17.1401327 13.3585966 17.1535948 8.67156863M62.6437908.176470588C58.258062.180973856 54.7038497 3.73518619 54.6993464 8.12091503L54.6993464 16.7222222 58.9689542 16.7222222 58.9689542 8.12091503C58.9689542 6.08323699 60.6208187 4.43137255 62.6584967 4.43137255 64.6961748 4.43137255 66.3480392 6.08323699 66.3480392 8.12091503L66.3480392 16.7222222 70.5964052 16.7222222 70.5964052 8.12091503C70.591902 3.73518619 67.0376896.180973856 62.6519608.176470588M40.9869281 6.66666667L41.0457516 6.5620915C41.8085035 5.16943708 43.2699903 4.30355523 44.8578431 4.30355523 46.445696 4.30355523 47.9071828 5.16943708 48.6699346 6.5620915L48.7287582 6.66666667 40.9869281 6.66666667zM53.1013072 6.61437908L53.1013072 6.61437908C52.0379012 2.3166814 47.8526385-.444194828 43.4832659.269682641 39.1138933.98356011 36.0249617 4.93290983 36.3846741 9.34557849 36.7443864 13.7582471 40.4321724 17.1551717 44.8594771 17.1520011 46.7164694 17.1577163 48.5228246 16.5467854 49.995098 15.4150327L47.0196078 12.4395425C45.0245869 13.5907141 42.4776423 12.9807105 41.2205882 11.0506536L41.1486928 10.9395425 53.0375817 10.9395425C53.2385621 10.2075163 53.5147059 8.21078431 53.1013072 6.62254902"/>
  </g>
</svg>
