<?xml version="1.0" encoding="utf-8"?>
<!-- Generator: Adobe Illustrator 24.0.0, SVG Export Plug-In . SVG Version: 6.00 Build 0)  -->
<svg version="1.1" id="Layer_1" xmlns="http://www.w3.org/2000/svg" xmlns:xlink="http://www.w3.org/1999/xlink" x="0px" y="0px"
	 viewBox="0 0 613 121" style="enable-background:new 0 0 613 121;" xml:space="preserve">
<g>
	<g>
		<path d="M144,2.9c-8.6,0-16.8,3.3-22,8.8c0.1-0.8,0.1-1.7,0.2-2.7c0.1-1.1-0.3-2.2-1-3c-0.8-0.9-1.9-1.4-3.1-1.4h-15.2
			c-1,0-1.8,0.7-2,1.6L77.6,115.8c-0.2,0.8,0.2,1.7,0.9,2.2c0.3,0.2,0.7,0.3,1.1,0.3H88c6.9,0,13-4.9,14.4-11.7l5.9-28.5
			c3.9,5.4,12.2,10.8,24.6,10.8c24.8,0,42.8-21.7,42.8-51.6C175.9,16,163.7,2.9,144,2.9z M152.6,40.7c0,17.8-11.2,27.5-21.7,27.5
			c-9.9,0-16.1-6.9-16.1-18.1c0-15.1,9.5-27,21.5-27C146.6,23.2,152.6,29.7,152.6,40.7z"/>
		<path d="M258.7,50.6c1.3-4.5,2-9.7,2-13.8c0-21.1-14.2-34.8-36.2-34.8c-21.7,0-44.2,18.4-44.2,49.3c0,22.1,15.9,38.1,37.9,38.1
			c22.8,0,32.8-13.6,36.1-19.4c0.3-0.5,0.3-1.1,0.2-1.6c-0.2-0.5-0.5-1-1-1.2l-14.2-7.1c-1-0.5-2.1-0.2-2.7,0.7
			c-1.7,2.7-6.8,9.1-17,9.1c-10.5,0-17.3-6.9-17.6-17.6l54.7-0.2C257.6,52.1,258.4,51.4,258.7,50.6z M224.1,21
			c11.7,0,14.8,8.4,14.8,13.4c0,0.3,0,0.6-0.1,1.4h-34.3C207.5,26.6,214.8,21,224.1,21z"/>
		<path d="M317.5,2.4c-9.1,0-17,3.2-21.9,9c0.1-0.7,0.1-1.5,0.2-2.3c0.1-1.1-0.3-2.2-1-3.1c-0.8-0.9-1.9-1.4-3.1-1.4h-15.2
			c-1,0-1.8,0.7-2,1.6L258,84.5c-0.2,0.8,0.2,1.7,0.9,2.2c0.3,0.2,0.7,0.3,1.1,0.3h18.7c1,0,1.8-0.7,2-1.6l10-45.9
			c2.2-10.3,8.4-16.4,16.6-16.4c7.5,0,11.8,4.2,11.8,11.5c0,1.5-0.2,3.1-0.5,4.7l-8.2,38.5c-0.5,2.4,0.2,5,1.9,6.8
			c1.5,1.6,3.6,2.4,5.8,2.4h12c0.8,0,1.6-0.6,1.7-1.4l10.4-48.2c0.7-3,1-5.9,1-8.7C343.2,12.6,333.1,2.4,317.5,2.4z"/>
		<path d="M400.1,2.9c-8.6,0-16.8,3.3-22,8.8c0.1-0.9,0.1-1.8,0.2-2.8c0-1.1-0.4-2.2-1.1-3c-0.8-0.8-1.8-1.3-3-1.3H359
			c-1,0-1.8,0.7-2,1.6l-23.3,109.6c-0.1,0.6,0,1.2,0.4,1.7s1,0.8,1.6,0.8h8.5c6.9,0,13-4.9,14.4-11.7l5.9-28.5
			c3.9,5.4,12.2,10.8,24.6,10.8c24.8,0,42.8-21.7,42.8-51.6C432.1,16,419.8,2.9,400.1,2.9z M408.8,40.7c0,17.8-11.2,27.5-21.7,27.5
			c-9.9,0-16.1-6.9-16.1-18.1c0-15.1,9.5-27,21.5-27C402.7,23.2,408.8,29.7,408.8,40.7z"/>
		<path d="M510.2,85.8c0.2-0.3,0.3-0.8,0.3-1.2c0-0.6,0-1.1,0-1.5c0-4.8,0.5-10,1.5-14.6l13-61.6c0.1-0.4,0.1-0.8-0.1-1.2
			c-0.3-0.8-1.1-1.4-1.9-1.4h-16.7c-1.9,0-3.6,1.4-4,3.3l-1.1,4.9c-2.3-3.5-8.6-10.2-23.3-10.2c-24,0-42,21.1-42,49.1
			c0,21.6,13.3,36.7,32.3,36.7c11,0,17.6-5.6,21-10c-0.1,1.4-0.2,2.9-0.2,4.1v0.3c0,2.3,1.8,4.1,4.1,4.1h15.3
			C509.1,86.9,509.8,86.5,510.2,85.8z M494.6,40.1c0,16.3-8.6,28.1-20.5,28.1c-9.6,0-15.3-6.5-15.3-17.4c0-17.8,10.8-27.5,20.9-27.5
			C489,23.3,494.6,29.6,494.6,40.1z"/>
		<path d="M609.1,5c-0.4-0.3-0.8-0.5-1.3-0.5H588c-0.8,0-1.5,0.4-1.8,1.1l-27.9,51.9l-6.7-51.2c-0.1-1-1-1.8-2-1.8H530
			c-0.3,0-0.5,0-0.8,0.2c-0.9,0.4-1.4,1.4-1.2,2.3l13.6,77c0.1,0.4,0,0.9-0.2,1.2l-3,4.8c-3.4,5.9-7.6,8.8-12.9,9
			c-1.9,0-3.6-0.3-5-0.9c-0.9-0.4-2-0.1-2.6,0.8l-9.2,15c-0.2,0.4-0.4,0.8-0.3,1.3c0.1,0.6,0.4,1,0.9,1.3c2.6,1.4,7.9,3,14.2,3
			c14.4,0,27.9-8.7,37.2-23.9l48.9-88C610,6.7,609.9,5.7,609.1,5z"/>
		<path d="M63.4,41.2c0,13.1-7.5,27-21.4,27c-9.8,0-16.1-7.2-16.1-18.2c0-15.3,9.2-26.8,21.4-26.8c1.3,0,2.4,0.1,3.6,0.3
			C52,23.7,53,23,53.2,22c0.9-4,2.8-13.1,3.6-17.1c0.2-1.1-0.5-2.2-1.6-2.4c-2-0.3-4.1-0.4-6.2-0.4c-26.3,0-46.2,21.1-46.2,49
			c0,22.3,15.9,38.4,37.8,38.4c25.8,0,46-21.5,46-49c0-3.1-0.3-6-0.8-8.8c-0.2-1.2-1.4-1.9-2.6-1.5l-18.5,6
			c-0.9,0.3-1.5,1.2-1.4,2.1C63.4,39.2,63.4,40.2,63.4,41.2z"/>
	</g>
	<path d="M78.2,8.8c-3.6-3.5-8.3-5.9-13.9-6.9c-1.2-0.2-2.4,0.6-2.6,1.7c-1.3,5.9-4.9,23.1-6.1,28.9c-0.2,0.8,0.6,1.6,1.5,1.3
		l27.3-8.9c1.1-0.4,1.8-1.5,1.5-2.6C84.5,17,81.9,12.4,78.2,8.8z"/>
</g>
</svg>
