<?xml version="1.0" encoding="utf-8"?>
<!-- Generator: Adobe Illustrator 24.0.0, SVG Export Plug-In . SVG Version: 6.00 Build 0)  -->
<svg version="1.1" id="Layer_1" xmlns="http://www.w3.org/2000/svg" xmlns:xlink="http://www.w3.org/1999/xlink" x="0px" y="0px"
	 viewBox="0 0 99 105" style="enable-background:new 0 0 99 105;" xml:space="preserve">
<style type="text/css">
	.st0{fill:none;stroke:#3C465A;stroke-width:2.83;stroke-linecap:round;stroke-miterlimit:10;}
	.st1{fill:none;stroke:#3C465A;stroke-width:2.83;stroke-linecap:round;stroke-linejoin:round;}
</style>
<title>Asset 48</title>
<g id="Layer_1-2">
	<path class="st0" d="M58.7,75.5v23.6c0,2.2-1.7,4-3.9,4.1c0,0,0,0-0.1,0H6c-2.2,0-4-1.8-4-4c0,0,0,0,0-0.1V5.9c0-2.2,1.8-4,4-4.1
		h48.6c2.2,0,4,1.8,4,4.1v24.7"/>
	<g>
	</g>
	<path class="st1" d="M47.5,67.3V37.4c0-1.2,1-2.3,2.3-2.3h45c1.2,0,2.3,1,2.3,2.3v30c0,1.2-1,2.3-2.3,2.3h-45
		C48.6,69.6,47.5,68.6,47.5,67.3z"/>
	<line class="st1" x1="53.7" y1="56.4" x2="85.1" y2="56.4"/>
	<line class="st1" x1="53.7" y1="62.5" x2="85.1" y2="62.5"/>
	<line class="st1" x1="24.4" y1="9.8" x2="37.4" y2="9.8"/>
	<path class="st1" d="M35.5,93.5c0,2.5-2,4.6-4.7,4.6s-4.6-2-4.6-4.7c0-2.5,2-4.6,4.6-4.6C33.5,88.8,35.5,91,35.5,93.5L35.5,93.5"/>
</g>
</svg>
