<?xml version="1.0" encoding="utf-8"?>
<!-- Generator: Adobe Illustrator 24.0.0, SVG Export Plug-In . SVG Version: 6.00 Build 0)  -->
<svg version="1.1" id="Layer_1" xmlns="http://www.w3.org/2000/svg" xmlns:xlink="http://www.w3.org/1999/xlink" x="0px" y="0px"
	 viewBox="0 0 117 105" style="enable-background:new 0 0 117 105;" xml:space="preserve">
<style type="text/css">
	.st0{fill:none;stroke:#3C465A;stroke-width:3;}
	.st1{fill:none;stroke:#3C465A;stroke-width:3;stroke-linecap:round;stroke-linejoin:round;}
</style>
<title>Group 23</title>
<desc>Created with Sketch.</desc>
<g id="Page-1">
	<g id="landing-page-JD-Copy" transform="translate(-114.000000, -607.000000)">
		<g id="Group-23" transform="translate(115.000000, 608.000000)">
			<path id="Stroke-1" class="st0" d="M11,52.1v2.2V78v9.7c0,7.8,6.4,14.2,14.4,14.2h9h47.8h7.4c8,0,14.4-6.4,14.4-14.2V72.9V54.3
				v-2.2c0-4.4,3.6-8.2,8.2-8.2H2.7C7.2,43.9,11,47.5,11,52.1z"/>
			<path id="Stroke-3" class="st0" d="M69.2,2.1c-1.2-1.2-3.4-1.2-4.6,0c-1.2,1.2-1.2,3.4,0,4.6l28.8,28.6h9.2L69.2,2.1z"/>
			<path id="Stroke-5" class="st0" d="M50,6.6c1.2-1.2,1.2-3.4,0-4.6c-1.2-1.3-3.4-1.2-4.6,0L12,35.2h9.2L50,6.6z"/>
			<path id="Stroke-7" class="st1" d="M2.2,43.9h110.3c0.6,0,1.2-0.6,1.2-1.2v-6.2c0-0.6-0.6-1.2-1.2-1.2H2.2
				c-0.6,0-1.2,0.6-1.2,1.2v6.2C0.8,43.3,1.4,43.9,2.2,43.9z"/>
			<path id="Stroke-9" class="st1" d="M2.2,43.9h110.3c0.6,0,1.2-0.6,1.2-1.2v-6.2c0-0.6-0.6-1.2-1.2-1.2H2.2
				c-0.6,0-1.2,0.6-1.2,1.2v6.2C0.8,43.3,1.4,43.9,2.2,43.9z"/>
			<path id="Stroke-11" class="st1" d="M69.2,2.1c-1.2-1.2-3.4-1.2-4.6,0c-1.2,1.2-1.2,3.4,0,4.6l28.8,28.6h9.2L69.2,2.1z"/>
			<path id="Stroke-13" class="st1" d="M50,6.6c1.2-1.2,1.2-3.4,0-4.6c-1.2-1.3-3.4-1.2-4.6,0L12,35.2h9.2L50,6.6z"/>
			<path id="Stroke-15" class="st1" d="M57.4,91.8L57.4,91.8c-2.2,0-3.8-1.8-3.8-3.8V58.5c0-2,1.8-3.8,3.8-3.8
				c2.2,0,3.8,1.8,3.8,3.8v29.4C61.2,89.9,59.6,91.8,57.4,91.8z"/>
			<path id="Stroke-17" class="st1" d="M37.2,91.8L37.2,91.8c-2.2,0-3.8-1.8-3.8-3.8V58.5c0-2,1.8-3.8,3.8-3.8
				c2.2,0,3.8,1.8,3.8,3.8v29.4C41,89.9,39.2,91.8,37.2,91.8z"/>
			<path id="Stroke-19" class="st1" d="M81.6,71.3v16.6c0,2-1.8,3.8-3.8,3.8s-3.8-1.8-3.8-3.8V58.5c0-2,1.8-3.8,3.8-3.8
				s3.8,1.8,3.8,3.8v7.4"/>
			<path id="Stroke-21" class="st1" d="M103.8,87.7c0,7.8-6.4,14.2-14.4,14.2H82H34.2h-9c-8,0-14.4-6.4-14.4-14.2v-9.6V54.3v-2.2
				c0-4.4-3.6-8.2-8.2-8.2h109.3c-4.6,0-8.2,3.6-8.2,8.2v2.2v18.6L103.8,87.7z"/>
		</g>
	</g>
</g>
</svg>
