<?xml version="1.0" encoding="utf-8"?>
<!-- Generator: Adobe Illustrator 24.0.0, SVG Export Plug-In . SVG Version: 6.00 Build 0)  -->
<svg version="1.1" id="Layer_1" xmlns="http://www.w3.org/2000/svg" xmlns:xlink="http://www.w3.org/1999/xlink" x="0px" y="0px"
	 viewBox="0 0 122 105" style="enable-background:new 0 0 122 105;" xml:space="preserve">
<style type="text/css">
	.st0{fill:#3C465A;}
</style>
<title>Icon_Calendar</title>
<desc>Created with Sketch.</desc>
<g id="Page-1">
	<g id="landing-page-JD-Copy" transform="translate(-533.000000, -608.000000)">
		<g id="Icon_Calendar" transform="translate(533.000000, 608.000000)">
			<path id="Path_4545" class="st0" d="M120.9,92.8l-5.3-27.6c-0.2-0.8-1.1-1.5-1.9-1.3c-0.8,0.2-1.5,1.1-1.3,1.9l5.3,27.6
				c0,0.4,0,0.8-0.2,1.1s-0.6,0.4-1.1,0.2H89.7l15.7-15.9c0.2-0.2,0.2-0.2,0.2-0.4c0,0,0,0,0-0.2c0-0.2,0-0.2,0-0.4l0,0V30.4
				l5.3,27.8c0.2,0.6,0.8,1.3,1.5,1.3h0.2c0.4,0,0.8-0.2,1.1-0.6c0.2-0.4,0.2-0.8,0.2-1.3l-8.1-43.7c0-0.4,0-0.6-0.2-0.8v-0.4
				c0-0.6-0.4-1.1-1.1-1.3c-0.6-0.6-1.5-0.8-2.3-0.8H85.5V3.3c0-0.8-0.6-1.5-1.5-1.5c-0.8,0-1.7,0.6-1.7,1.5v7H70V2.9
				c0-0.8-0.6-1.5-1.5-1.5S67.1,2,67.1,2.9v7.2H54.8V2.6c0-0.8-0.6-1.5-1.5-1.5s-1.5,0.6-1.5,1.5v7.6H39.5V2.4C39.5,1.6,38.9,1,38,1
				s-1.5,0.6-1.5,1.5v7.8H24.2V2.2c0-0.8-0.6-1.5-1.5-1.5c-0.8,0-1.5,0.4-1.5,1.5v8.1H4.5c-2.1,0-3.8,1.7-3.8,3.8v86.3
				c0,2.1,1.7,3.8,3.8,3.8h44.7c0.8,0,1.5-0.6,1.5-1.5s-0.6-1.9-1.5-1.9H4.5c-0.4,0-0.6-0.2-0.6-0.6V31.9h99V76H82.1
				c-2.1,0-3.8,1.7-3.8,3.8v21H57.1c-0.6,0-1.1,0.2-1.3,0.8s-0.2,1.1,0,1.5c0.2,0.4,0.8,0.8,1.3,0.8h22.7c0.4,0,0.8-0.2,1.1-0.4
				l5.7-5.9h29.9c1.3,0,2.5-0.4,3.4-1.3C120.7,95.3,121.1,94,120.9,92.8L120.9,92.8z M3.9,28.7V14.1c0-0.4,0.2-0.6,0.6-0.6h16.7v7.6
				c0,0.8,0.6,1.5,1.5,1.5c0.8,0,1.5-0.6,1.5-1.5v-7.6h12.3v7.8c0,0.8,0.6,1.5,1.5,1.5s1.5-0.6,1.5-1.5v-7.8h12.3v8.1
				c0,0.8,0.6,1.5,1.5,1.5c0.8,0,1.5-0.6,1.5-1.5v-8.1h12.3v8.5c0,0.8,0.6,1.5,1.5,1.5s1.5-0.6,1.5-1.5v-8.5h12.3v8.7
				c0,0.8,0.6,1.5,1.5,1.5s1.5-0.6,1.5-1.5v-8.7H102c0.2,0,0.4,0.2,0.6,0.4v0.4v14.4H3.9z M81.5,79.8c0-0.4,0.2-0.6,0.6-0.6h18.7
				L81.5,98.7V79.8z"/>
			<path id="Path_4546" class="st0" d="M43.7,42.1c-3.8,0-6.8,3-6.8,6.8s3,6.8,6.8,6.8s6.8-3,6.8-6.8S47.3,42.1,43.7,42.1L43.7,42.1
				z M43.7,52.5c-1.5,0-2.8-0.8-3.4-2.3c-0.6-1.3-0.2-3,0.8-4c1.1-1.1,2.5-1.3,4-0.8c1.5,0.4,2.3,1.9,2.3,3.4
				C47.3,51,45.6,52.5,43.7,52.5z"/>
			<path id="Path_4547" class="st0" d="M62.4,55.7c2.8,0,5.1-1.7,6.1-4.2s0.4-5.5-1.5-7.4s-4.9-2.5-7.4-1.5s-4.2,3.6-4.2,6.4
				C55.6,52.7,58.6,55.7,62.4,55.7L62.4,55.7z M62.4,45.3c1.9,0,3.6,1.7,3.6,3.6s-1.7,3.6-3.6,3.6c-1.9,0-3.8-1.5-3.8-3.6
				S60.3,45.3,62.4,45.3L62.4,45.3z"/>
			<path id="Path_4548" class="st0" d="M80.8,55.7c3.8,0,6.8-3,6.8-6.8s-3-6.8-6.8-6.8s-6.8,3-6.8,6.8
				C74.3,52.7,77.2,55.7,80.8,55.7L80.8,55.7z M80.8,45.3c1.5,0,2.8,0.8,3.4,2.3c0.6,1.3,0.2,3-0.8,4c-1.1,1.1-2.5,1.3-4,0.8
				C77.9,52,77,50.6,77,49.1C77.2,46.7,78.9,45.3,80.8,45.3L80.8,45.3z"/>
			<path id="Path_4549" class="st0" d="M43.7,59.7c-3.8,0-6.8,3-6.8,6.8c0,3.8,3,6.8,6.8,6.8s6.8-3,6.8-6.8
				C50.5,62.9,47.3,59.7,43.7,59.7L43.7,59.7z M43.7,70.3c-1.9,0-3.6-1.7-3.6-3.6s1.7-3.6,3.6-3.6s3.6,1.7,3.6,3.6
				S45.6,70.3,43.7,70.3z"/>
			<path id="Path_4550" class="st0" d="M62.4,73.2c2.8,0,5.1-1.7,6.1-4.2s0.4-5.5-1.5-7.4s-4.9-2.5-7.4-1.5
				c-2.5,1.1-4.2,3.6-4.2,6.4C55.6,70.3,58.6,73.2,62.4,73.2z M62.4,62.9c1.5,0,2.8,0.8,3.4,2.3c0.6,1.3,0.2,3-0.8,4
				c-1.1,1.1-2.5,1.3-4,0.8c-1.5-0.4-2.3-2.1-2.3-3.6C58.6,64.6,60.3,62.9,62.4,62.9L62.4,62.9z"/>
			<path id="Path_4551" class="st0" d="M80.8,73.2c3.8,0,6.8-3,6.8-6.8s-3-6.8-6.8-6.8s-6.8,3-6.8,6.8
				C74.3,70.3,77.2,73.2,80.8,73.2L80.8,73.2z M80.8,62.9c1.5,0,2.8,0.8,3.4,2.3s0.2,3-0.8,4c-1.1,1.1-2.5,1.3-4,0.8
				c-1.5-0.4-2.3-1.9-2.3-3.4C77.2,64.6,78.9,62.9,80.8,62.9L80.8,62.9z"/>
			<path id="Path_4552" class="st0" d="M43.7,77.5c-3.8,0-6.8,3-6.8,6.8s3,6.8,6.8,6.8s6.8-3,6.8-6.8S47.3,77.5,43.7,77.5z
				 M43.7,87.9c-1.9,0-3.6-1.7-3.6-3.6s1.7-3.6,3.6-3.6s3.6,1.7,3.6,3.6S45.6,87.9,43.7,87.9z"/>
			<path id="Path_4553" class="st0" d="M62.4,91.1c2.8,0,5.1-1.7,6.1-4.2s0.4-5.5-1.5-7.4s-4.9-2.5-7.4-1.5s-4.2,3.6-4.2,6.4
				C55.6,88.1,58.6,91.1,62.4,91.1z M62.4,80.5c1.9,0,3.6,1.7,3.6,3.6s-1.7,3.6-3.6,3.6c-1.9,0-3.8-1.5-3.8-3.4S60.3,80.5,62.4,80.5
				L62.4,80.5z"/>
			<path id="Path_4554" class="st0" d="M30.2,43.6c-0.2-0.2-0.6-0.4-1.1-0.4c-0.4,0-0.8,0.2-1.1,0.4l-3,3l-2.8-3
				c-0.6-0.6-1.5-0.6-2.1,0s-0.6,1.5,0,2.1l3,3l-3,3c-0.6,0.6-0.6,1.5,0,2.1s1.5,0.6,2.1,0l3-3l3,3c0.4,0.4,1.1,0.6,1.5,0.4
				c0.6-0.2,1.1-0.6,1.1-1.1c0.2-0.6,0-1.1-0.4-1.5l-3-3l3-3c0.2-0.2,0.4-0.6,0.4-1.1C30.8,44.2,30.4,44,30.2,43.6L30.2,43.6z"/>
			<path id="Path_4555" class="st0" d="M30.2,61.4C30,61.2,29.5,61,29.1,61c-0.4,0-0.8,0.2-1.1,0.4l-3,3l-3-3
				c-0.6-0.6-1.5-0.6-2.1,0s-0.6,1.5,0,2.1l3,3l-3,3c-0.6,0.6-0.6,1.5,0,2.1s1.5,0.6,2.1,0l3-3l3,3c0.4,0.4,1.1,0.6,1.5,0.4
				c0.6-0.2,1.1-0.6,1.1-1.1c0.2-0.6,0-1.1-0.4-1.5l-3-3l3-3C30.8,62.9,30.8,61.8,30.2,61.4L30.2,61.4z"/>
			<path id="Path_4556" class="st0" d="M30.2,79c-0.2-0.2-0.6-0.4-1.1-0.4c-0.4,0-0.8,0.2-1.1,0.4l-3,3l-3-3
				c-0.4-0.4-1.1-0.6-1.5-0.4c-0.4,0.2-0.8,0.6-1.1,1.1c-0.2,0.4,0,1.1,0.4,1.5l3,3l-3,3c-0.6,0.6-0.6,1.5,0,2.1s1.5,0.6,2.1,0l3-3
				l3,3c0.4,0.4,1.1,0.6,1.5,0.4c0.6-0.2,1.1-0.6,1.1-1.1c0.2-0.6,0-1.1-0.4-1.5l-3-3l3-3c0.2-0.2,0.4-0.6,0.4-1.1
				C30.6,79.6,30.4,79.2,30.2,79L30.2,79z"/>
		</g>
	</g>
</g>
</svg>
